HIERARCHY
ROOT Hips
{
	OFFSET -0.001795 -0.223333 0.028219
	CHANNELS 6 Xposition Yposition Zposition Zrotation Yrotation Xrotation 
	JOINT LeftUpLeg
	{
		OFFSET 0.069520 -0.091406 -0.006815
		CHANNELS 3 Zrotation Yrotation Xrotation
		JOINT LeftLeg
		{
			OFFSET 0.034277 -0.375199 -0.004496
			CHANNELS 3 Zrotation Yrotation Xrotation
			JOINT LeftFoot
			{
				OFFSET -0.013596 -0.397961 -0.043693
				CHANNELS 3 Zrotation Yrotation Xrotation
				JOINT LeftToe
				{
					OFFSET 0.026358 -0.055791 0.119288
					CHANNELS 3 Zrotation Yrotation Xrotation
					End Site
					{
						OFFSET 0.000000 0.000000 0.000000
					}
				}
			}
		}
	}
	JOINT RightUpLeg
	{
		OFFSET -0.067670 -0.090522 -0.004320
		CHANNELS 3 Zrotation Yrotation Xrotation
		JOINT RightLeg
		{
			OFFSET -0.038290 -0.382569 -0.008850
			CHANNELS 3 Zrotation Yrotation Xrotation
			JOINT RightFoot
			{
				OFFSET 0.015774 -0.398415 -0.042312
				CHANNELS 3 Zrotation Yrotation Xrotation
				JOINT RightToe
				{
					OFFSET -0.025372 -0.048144 0.123348
					CHANNELS 3 Zrotation Yrotation Xrotation
					End Site
					{
						OFFSET 0.000000 0.000000 0.000000
					}
				}
			}
		}
	}
	JOINT Spine
	{
		OFFSET -0.002533 0.108963 -0.026696
		CHANNELS 3 Zrotation Yrotation Xrotation
		JOINT Spine1
		{
			OFFSET 0.005487 0.135180 0.001092
			CHANNELS 3 Zrotation Yrotation Xrotation
			JOINT Spine2
			{
				OFFSET 0.001457 0.052922 0.025425
				CHANNELS 3 Zrotation Yrotation Xrotation
				JOINT Neck
				{
					OFFSET -0.002778 0.213870 -0.042857
					CHANNELS 3 Zrotation Yrotation Xrotation
					JOINT Head
					{
						OFFSET 0.005152 0.064970 0.051349
						CHANNELS 3 Zrotation Yrotation Xrotation
						End Site
						{
							OFFSET 0.000000 0.000000 0.000000
						}
					}
				}
				JOINT LeftShoulder
				{
					OFFSET 0.078845 0.121749 -0.034090
					CHANNELS 3 Zrotation Yrotation Xrotation
					JOINT LeftArm
					{
						OFFSET 0.090977 0.030469 -0.008868
						CHANNELS 3 Zrotation Yrotation Xrotation
						JOINT LeftForeArm
						{
							OFFSET 0.259612 -0.012772 -0.027456
							CHANNELS 3 Zrotation Yrotation Xrotation
							JOINT LeftHand
							{
								OFFSET 0.249234 0.008986 -0.001171
								CHANNELS 3 Zrotation Yrotation Xrotation
								End Site
								{
									OFFSET 0.000000 0.000000 0.000000
								}
							}
						}
					}
				}
				JOINT RightShoulder
				{
					OFFSET -0.081759 0.118833 -0.038615
					CHANNELS 3 Zrotation Yrotation Xrotation
					JOINT RightArm
					{
						OFFSET -0.096012 0.032551 -0.009143
						CHANNELS 3 Zrotation Yrotation Xrotation
						JOINT RightForeArm
						{
							OFFSET -0.253742 -0.013329 -0.021401
							CHANNELS 3 Zrotation Yrotation Xrotation
							JOINT RightHand
							{
								OFFSET -0.255298 0.007772 -0.005559
								CHANNELS 3 Zrotation Yrotation Xrotation
								End Site
								{
									OFFSET 0.000000 0.000000 0.000000
								}
							}
						}
					}
				}
			}
		}
	}
}
MOTION
Frames: 8
Frame Time: 0.050000
0.152976 1.042487 1.106925 -2.615043 8.925593 -18.935765 0.947043 1.225004 25.576054 -1.407662 0.084363 1.982238 -2.156964 7.000132 24.920172 0.000000 0.000000 0.000000 -1.312259 0.781235 -9.973331 3.030778 -0.448223 11.842796 -3.535683 -12.707815 34.518884 0.000000 0.000000 0.000000 -9.757940 -0.260174 60.969737 37.376551 10.034708 -82.384925 -6.549155 27.297430 64.150681 2.163693 8.245032 -17.618777 0.000000 0.000000 0.000000 -39.335020 -5.075609 -12.256971 -27.690842 -3.728843 -4.594229 -19.954011 -34.400153 7.319293 0.000000 0.000000 0.000000 38.697926 1.736199 15.405264 29.911987 9.091820 -10.208727 7.161946 33.005030 3.201376 0.000000 0.000000 0.000000 
0.158262 1.035125 1.159569 -2.348115 11.526849 -19.139592 1.174409 0.929028 28.422923 -0.995747 0.010791 2.601839 -3.399674 5.165728 23.035973 0.000000 0.000000 0.000000 -1.751279 0.663477 -9.529903 1.181095 -0.130254 1.286911 -2.556476 -10.769616 34.095057 0.000000 0.000000 0.000000 -9.240575 -1.206768 59.984891 38.438735 11.978483 -87.571371 -8.281826 28.843424 71.037374 0.626341 11.166373 -22.749934 0.000000 0.000000 0.000000 -37.187176 -5.270508 -11.132538 -28.842006 -7.001896 -5.358612 -19.384162 -35.253566 7.344981 0.000000 0.000000 0.000000 39.015695 1.531909 16.507524 29.951497 10.675156 -11.166495 5.221024 32.797967 2.511178 0.000000 0.000000 0.000000 
0.163262 1.027974 1.215989 -2.243488 12.520565 -19.394543 1.432415 0.714654 31.364845 -0.479753 -0.085835 3.461468 -3.479572 4.633840 21.611170 0.000000 0.000000 0.000000 -1.586024 0.654244 -9.349327 0.642923 -0.132121 -1.627760 -1.812534 -9.754745 35.179756 0.000000 0.000000 0.000000 -8.394878 -1.840181 59.685146 40.410220 12.927160 -88.304334 -10.579023 30.905724 69.956154 1.414537 10.631971 -19.495861 0.000000 0.000000 0.000000 -36.919623 -5.257085 -12.373522 -29.042897 -6.361546 -5.073223 -21.132287 -35.116354 7.712895 0.000000 0.000000 0.000000 39.078450 1.239654 17.089535 30.592031 10.688925 -11.375772 4.230053 32.353890 2.192576 0.000000 0.000000 0.000000 
0.167710 1.024678 1.277393 -2.182986 13.905700 -19.685409 1.678231 0.341417 34.541793 0.179174 -0.228667 4.652763 -4.170656 3.835672 21.621947 0.000000 0.000000 0.000000 -1.141981 0.685517 -9.325347 0.426135 -0.006821 2.222337 -1.840806 -9.831120 37.645953 0.000000 0.000000 0.000000 -6.684002 -2.945321 58.604049 41.179441 14.909742 -92.860180 -11.634215 34.203743 75.814647 2.289917 11.845388 -24.245723 0.000000 0.000000 0.000000 -35.829335 -5.879107 -12.538662 -29.910327 -6.577694 -5.908843 -21.205849 -35.422687 7.799262 0.000000 0.000000 0.000000 40.705873 0.486083 18.976579 28.935040 13.386835 -12.042664 1.526999 31.975150 1.180948 0.000000 0.000000 0.000000 
0.171369 1.027328 1.341495 -2.289633 14.336724 -19.297411 2.329228 -0.013368 35.859997 0.571396 -0.434131 7.213382 -4.199216 4.709874 24.089765 0.000000 0.000000 0.000000 -1.061953 0.703173 -9.512113 1.992279 -0.274261 7.176999 -1.950607 -10.074896 38.614047 0.000000 0.000000 0.000000 -5.193443 -3.409864 55.608311 45.196286 16.534872 -93.802199 -14.316203 39.446517 77.718280 3.583358 12.604683 -24.957725 0.000000 0.000000 0.000000 -34.217153 -5.382155 -15.033685 -32.477659 -4.662455 -6.651343 -22.324551 -34.894489 7.851821 0.000000 0.000000 0.000000 41.287826 -0.315051 20.547981 28.257629 15.497492 -12.312563 -1.177616 33.699472 0.372785 0.000000 0.000000 0.000000 
0.174026 1.037442 1.403664 -2.469724 12.310220 -18.773435 3.047308 0.136894 35.227796 0.239883 -0.645196 11.512972 -4.422252 5.104164 26.945067 0.000000 0.000000 0.000000 0.174071 0.835572 -9.060652 3.358088 -0.614765 11.006640 -1.578533 -9.848015 36.549793 0.000000 0.000000 0.000000 -3.600425 -3.486095 54.002544 46.090631 16.604940 -93.063262 -15.322850 40.521708 76.224979 3.084602 13.054105 -24.979953 0.000000 0.000000 0.000000 -35.071575 -4.888491 -16.629667 -32.899275 -1.955841 -6.750324 -22.841415 -34.032190 7.806169 0.000000 0.000000 0.000000 40.987508 0.239910 21.045697 27.734357 16.129317 -11.813962 -1.034294 35.550143 0.446954 0.000000 0.000000 0.000000 
0.175351 1.052535 1.459425 -3.478470 10.769453 -18.530123 5.129574 -0.200361 32.074173 -1.570491 -0.719971 19.052010 -4.299549 6.562905 32.048813 0.000000 0.000000 0.000000 2.321740 0.842583 -6.846986 3.207413 -0.576749 12.340304 -1.158554 -9.410925 35.089115 0.000000 0.000000 0.000000 -0.942540 -4.310692 52.807281 41.377346 18.017257 -100.202301 -10.595531 38.531444 86.551996 0.126627 15.351043 -28.330090 0.000000 0.000000 0.000000 -35.431475 -4.269669 -14.262285 -34.349202 -3.688012 -8.949494 -23.159845 -32.742889 8.179554 0.000000 0.000000 0.000000 36.881293 0.539873 18.233661 28.782980 16.917131 -12.608727 1.191479 37.909551 1.462501 0.000000 0.000000 0.000000 
0.175850 1.066700 1.505971 -4.113174 9.261804 -18.726041 7.085168 -0.334861 26.268753 -4.755847 -0.305377 28.954984 -2.221694 9.708576 37.191284 0.000000 0.000000 0.000000 4.011947 0.646407 -4.259722 3.187000 -0.542524 13.000836 -0.348600 -8.664753 34.714918 0.000000 0.000000 0.000000 -1.075210 -4.132483 53.795769 43.322564 16.890562 -95.639903 -9.084580 39.478295 81.143397 1.992445 13.830628 -25.269508 0.000000 0.000000 0.000000 -36.959564 -4.903929 -17.352123 -32.874635 0.100513 -7.243911 -24.706033 -31.240282 7.863516 0.000000 0.000000 0.000000 36.591932 1.208564 18.685723 27.364360 15.943006 -11.032243 0.907043 42.230034 1.556180 0.000000 0.000000 0.000000 
